<?xml version="1.0" standalone="no"?>
<!DOCTYPE svg PUBLIC "-//W3C//DTD SVG 20010904//EN"
 "http://www.w3.org/TR/2001/REC-SVG-20010904/DTD/svg10.dtd">
<svg version="1.0" xmlns="http://www.w3.org/2000/svg"
 width="512.000000pt" height="512.000000pt" viewBox="0 0 512.000000 512.000000"
 preserveAspectRatio="xMidYMid meet">
<metadata>
Created by potrace 1.14, written by Peter Selinger 2001-2017
</metadata>
<g transform="translate(0.000000,512.000000) scale(0.100000,-0.100000)"
fill="#000000" stroke="none">
<path d="M1245 5113 c-144 -17 -345 -78 -468 -139 -386 -195 -640 -523 -749
-969 l-22 -90 -2 -1310 c-2 -720 1 -1339 6 -1375 55 -411 276 -770 615 -994
179 -119 359 -188 585 -224 25 -4 639 -7 1365 -7 1233 0 1326 1 1405 18 192
41 402 130 546 232 305 217 516 558 578 935 12 70 14 314 15 1365 0 725 -4
1307 -10 1343 -14 100 -17 114 -44 207 -129 445 -464 795 -897 940 -226 75
-179 73 -1613 72 -704 0 -1293 -2 -1310 -4z"/>
</g>
</svg>
