<svg xmlns="http://www.w3.org/2000/svg" width="258.047" height="81.421" viewBox="0 0 258.047 81.421"><g id="Group_475" data-name="Group 475" transform="translate(-1750.309 -125.312)"><g id="Group_473" data-name="Group 473"><g id="Group_472" data-name="Group 472"><g id="Group_471" data-name="Group 471"><g id="Group_470" data-name="Group 470" fill="#fed141"><path id="Path_1810" data-name="Path 1810" d="M1861.595 125.563v16.851h8.86v4.676h-14.336v-21.527z"/><path id="Path_1811" data-name="Path 1811" d="M1878.329 140.875a3.031 3.031 0 003.072 2.37 3.263 3.263 0 003.139-1.849l4 1.414c-1.288 2.838-3.6 4.525-7.349 4.525-5.6 0-7.812-4.336-7.812-8s2.214-7.99 7.812-7.99c5.844 0 7.6 4.424 7.6 7.683v1.846zm.055-3.5h5.632a2.613 2.613 0 00-2.827-2.367 2.86 2.86 0 00-2.805 2.363z"/><path id="Path_1812" data-name="Path 1812" d="M1897.092 140.875a3.04 3.04 0 003.072 2.37 3.26 3.26 0 003.14-1.849l4 1.414c-1.294 2.838-3.6 4.525-7.355 4.525-5.6 0-7.812-4.336-7.812-8s2.214-7.99 7.812-7.99c5.849 0 7.6 4.424 7.6 7.683v1.846zm.056-3.5h5.632a2.61 2.61 0 00-2.833-2.367 2.863 2.863 0 00-2.799 2.363z"/><path id="Path_1813" data-name="Path 1813" d="M1917.913 131.346a4.621 4.621 0 013.691 1.472v-7.506h5.041v21.778h-5.045v-1.322a4.494 4.494 0 01-3.6 1.567c-4.216 0-6.92-3.042-6.92-8s2.712-7.989 6.833-7.989zm1.015 11.687c1.656 0 2.927-1.146 2.927-3.7s-1.271-3.689-2.927-3.689-2.917 1.141-2.917 3.689 1.255 3.7 2.917 3.7z"/><path id="Path_1814" data-name="Path 1814" d="M1941.756 133.927l-2.738 2.521a3.032 3.032 0 00-2.342-1.355.948.948 0 00-1.042.861c0 .577.49.984 1.812 1.45 3.016 1.012 4.979 1.779 4.979 4.762 0 2.8-2.119 5.169-5.687 5.169a6.846 6.846 0 01-6.552-4.218l3.724-1.991c.519 1.444 1.411 2.4 2.828 2.4.708 0 1.349-.312 1.349-1.048 0-1.107-1.628-1.416-3.346-2.121-1.907-.773-3.446-2.027-3.446-4.486 0-2.4 2.03-4.522 5.348-4.522a5.815 5.815 0 015.113 2.578z"/><path id="Path_1815" data-name="Path 1815" d="M1873.054 168.61c0 5.752-3.452 8.423-8.465 8.423s-8.458-2.671-8.458-8.423v-13.355h5.046v13.294c0 2.7 1.505 3.75 3.412 3.75s3.419-1.049 3.419-3.75v-13.294h5.046z"/><path id="Path_1816" data-name="Path 1816" d="M1882.4 161.286v1.784a5.345 5.345 0 014.4-2.029c3.535 0 5.158 1.87 5.158 5.107v10.639h-5.041v-9.164c0-1.324-.646-2.1-1.756-2.1-1.69 0-2.766 1.541-2.766 4.466v6.794h-5.046v-15.5z"/><path id="Path_1817" data-name="Path 1817" d="M1898.676 153.446a3.011 3.011 0 11-3.017 3.008 2.962 2.962 0 013.017-3.008zm2.52 7.84v15.5h-5.041v-15.5z"/><path id="Path_1818" data-name="Path 1818" d="M1909.5 161.286l2.553 8.676 2.554-8.676h5.047l-5.387 15.5h-4.427l-5.381-15.5z"/><path id="Path_1819" data-name="Path 1819" d="M1926.539 170.576a3.047 3.047 0 003.072 2.367 3.269 3.269 0 003.145-1.843l4 1.413c-1.293 2.827-3.6 4.52-7.354 4.52-5.6 0-7.813-4.336-7.813-8s2.214-7.993 7.813-7.993c5.843 0 7.6 4.424 7.6 7.692v1.843zm.061-3.508h5.632a2.622 2.622 0 00-2.832-2.372 2.864 2.864 0 00-2.8 2.372z"/><path id="Path_1820" data-name="Path 1820" d="M1940.657 176.787v-15.5h5.041v1.689a5.281 5.281 0 014.316-1.934 4.842 4.842 0 012.024.429l-1.076 4.553a2.92 2.92 0 00-1.6-.43c-1.784 0-3.669 1.512-3.669 5.688v5.506z"/><path id="Path_1821" data-name="Path 1821" d="M1965.331 163.625l-2.738 2.523a3.009 3.009 0 00-2.341-1.355.946.946 0 00-1.043.862c0 .58.491.981 1.806 1.45 3.023 1.009 4.991 1.778 4.991 4.759 0 2.8-2.124 5.169-5.688 5.169a6.859 6.859 0 01-6.557-4.21l3.719-2c.524 1.441 1.422 2.4 2.838 2.4.7 0 1.35-.313 1.35-1.049 0-1.1-1.628-1.408-3.351-2.124-1.907-.77-3.446-2.027-3.446-4.489 0-2.4 2.029-4.519 5.353-4.519a5.825 5.825 0 015.107 2.583z"/><path id="Path_1822" data-name="Path 1822" d="M1972.19 153.446a3.011 3.011 0 11-3.011 3.008 2.962 2.962 0 013.011-3.008zm2.52 7.84v15.5h-5.046v-15.5z"/><path id="Path_1823" data-name="Path 1823" d="M1990.156 176.294a7.29 7.29 0 01-3.234.739c-3.508 0-6.19-1.871-6.19-5.719v-6.155h-2.2v-3.873h2.2v-3.2l4.929-3.069v6.273h3.9v3.873h-3.9v5.2c0 1.478.619 2.244 1.757 2.244a3.616 3.616 0 001.656-.37z"/><path id="Path_1824" data-name="Path 1824" d="M1998.3 175.558l-5.565-14.272h5.2l2.794 7.533 2.771-7.533h4.857l-8.057 21.774h-4.734z"/><path id="Path_1825" data-name="Path 1825" d="M1873.054 198.3c0 5.749-3.452 8.428-8.465 8.428s-8.458-2.679-8.458-8.428v-13.341h5.046v13.285c0 2.707 1.505 3.75 3.412 3.75s3.419-1.043 3.419-3.75v-13.285h5.046z"/><path id="Path_1826" data-name="Path 1826" d="M1882.4 190.987v1.778a5.356 5.356 0 014.4-2.024c3.535 0 5.158 1.877 5.158 5.1v10.645h-5.041v-9.164c0-1.33-.646-2.094-1.756-2.094-1.69 0-2.766 1.539-2.766 4.461v6.8h-5.046v-15.5z"/><path id="Path_1827" data-name="Path 1827" d="M1898.676 183.138a3.014 3.014 0 11-3.017 3.02 2.965 2.965 0 013.017-3.02zm2.52 7.849v15.5h-5.041v-15.5z"/><path id="Path_1828" data-name="Path 1828" d="M1913.346 190.741c5.414 0 8.18 3.722 8.18 7.991s-2.766 8-8.18 8-8.186-3.722-8.186-8 2.772-7.991 8.186-7.991zm0 11.687c2.152 0 3.134-1.477 3.134-3.7s-.982-3.686-3.134-3.686-3.134 1.475-3.134 3.686.976 3.7 3.134 3.7z"/><path id="Path_1829" data-name="Path 1829" d="M1930.972 190.987v1.778a5.339 5.339 0 014.394-2.024c3.54 0 5.169 1.877 5.169 5.1v10.645h-5.047v-9.164c0-1.33-.641-2.094-1.75-2.094-1.7 0-2.766 1.539-2.766 4.461v6.8h-5.046v-15.5z"/></g></g></g></g><g id="Group_474" data-name="Group 474" fill="#fed141"><path id="Path_1830" data-name="Path 1830" d="M1831.234 167.827a12.451 12.451 0 11-12.452-12.452 12.447 12.447 0 0112.452 12.452z"/><path id="Path_1831" data-name="Path 1831" d="M1830.068 128.145a7.98 7.98 0 00-11.286 0 7.98 7.98 0 00-11.285 11.286l11.285 11.286 11.286-11.286a7.989 7.989 0 000-11.286z"/><path id="Path_1832" data-name="Path 1832" d="M1831.234 181.834v24.9h-24.9z"/><path id="Path_1833" data-name="Path 1833" d="M1775.206 181.834v-56.025h-24.9v80.925h52.911v-24.9z"/></g></g></svg>