<svg xmlns="http://www.w3.org/2000/svg" viewBox="0 0 245.45 77.29"><defs><style>.cls-1{fill:#f8b92a}</style></defs><g id="Layer_2" data-name="Layer 2"><g id="Layer_1-2" data-name="Layer 1"><path class="cls-1" d="M5.5 9.77h16.33v-.5H5v60h98.04v-.5H5.5v-59zm219.61-.5v.5h14.84v59H117.04v.5h123.41v-60h-15.34zM99.87 9.26h71.23v.5H99.87z"/><path class="cls-1" d="M.5 4.76h21.33v-.5H0v70.01h103.04v-.5H.5V4.76zm99.37-.5h71.23v.5H99.87zm125.24 0v.5h19.84v69.01H117.04v.5h128.41V4.26h-20.34z"/><path class="cls-1" d="M47.72 1.93c12.09 0 30.74 4.9 40.53 4.9 3.31 0 6.7-.33 8.67-2.78h.11c-5.61 11-12 14-19 14a37 37 0 01-8.75-1.26c-2.48.75-3.85 4.21-4.79 10.11l-3.78 23.7c-1.33 8.4-2.05 12.77 5.47 12.77v.18h-29.4v-.18c7.48 0 8.35-4.35 9.64-12.77l3.31-21.53c1.41-9.43 13.36-11.95 19.33-12.27C57 13.66 43.69 6 33.79 6c-4.82 0-7.85 1.8-7.85 5.62s3.06 5.9 6.23 5.9a8.11 8.11 0 006.33-3c3 1.37 4.18 3.53 4.18 5.76 0 5.47-4.68 8.42-9.58 8.42s-10.29-3.16-10.72-10.14C22.74 5.46 36 1.93 47.72 1.93z"/><path class="cls-1" d="M104.9 45.13c0 10-9 18.84-19.71 18.84-8.55 0-14.55-5.58-14.55-13.5 0-10.41 8.91-18.84 19.68-18.84 8.61 0 14.58 5.55 14.58 13.5zM94 38.05c0-3.56-.84-6.21-3.66-6.21-6.6 0-8.7 19.35-8.7 25.8 0 3.54 1 6.12 3.63 6.12 6.58 0 8.73-18.66 8.73-25.71zM116.48 64c-.78 4.17-2.19 12.27.12 13l-.12.12a27.13 27.13 0 01-3.48.24c-4.74 0-8.85-1.74-7.56-9.48l5.34-32.09c.3-1.75-.6-2.41-2.55-1.66l-.09-.09a25.72 25.72 0 019.18-2.34c3.42 0 5 1.33 4.08 5.34l-3 13.62.24.06c3.9-15.11 8.76-19.49 14.43-19.49 5.91 0 8.31 4.56 8.31 10.14 0 9.62-7.14 22.19-19.68 22.19a12.23 12.23 0 01-4.08-.54v-.06c7.35.24 13-14.67 13-25.29 0-2.79-.39-4.43-1.89-4.43-3.6 0-8.46 10.38-10.11 19.07zm26.28-9.81c0-4.38 3.36-7.8 8.64-7.8 3.72 0 7 2.88 5.76 6.66a5.76 5.76 0 00-5.64 5.88c0 3.3 2.52 4.83 5.22 4.83 5.55 0 9.54-6.54 9.54-12 0-6-4.92-8.58-10.44-8.58a19 19 0 00-9.9 2.82l4.62-13.8c2.76-8.27 5.22-10.73 9.12-10.73 4.62 0 9.78 2.76 15.66 2.76 3.42 0 5.91-.45 6.87-3h.15c-2.22 6.89-5.16 13.19-12.6 13.19-5.34 0-10.38-3.23-15.6-3.23a14.69 14.69 0 00-3.15.35l-4.68 14c5.67-4.9 13.17-9.81 20.31-9.81 7.32 0 13.32 3.89 13.32 11C180 57 168.8 64 156.8 64c-7.38 0-14.04-3.63-14.04-9.81zm80.31-15.84c0 13.62-10 25.62-23.31 25.62-10.44 0-16.5-7.17-16.5-17.16 0-13 9-25.67 23.31-25.67 10.43 0 16.5 7.23 16.5 17.21zm-13.56 4.2a86.16 86.16 0 001.29-12.83c0-5.64-1.32-8.37-4.29-8.37-4.68 0-7.38 6.81-9.66 21.2a87.65 87.65 0 00-1.32 12.9c0 5.61 1.35 8.31 4.29 8.31 4.68 0 7.38-6.76 9.69-21.21z"/><g id="MLH"><g id="Layer_1-2-2" data-name="Layer 1-2"><g id="mlh-logo-monochrome-yellow"><path class="cls-1" d="M190.67.2a2.33 2.33 0 011.25 1.24 2.39 2.39 0 01.19.91v11.72a.38.38 0 01-.37.38h-2.82a.3.3 0 01-.26-.11.38.38 0 01-.1-.27V3.42h-2.25v10.66a.45.45 0 01-.1.27.39.39 0 01-.27.11h-2.54a.37.37 0 01-.38-.37V3.42h-2.26v10.66a.34.34 0 01-.29.38h-2.87a.35.35 0 01-.39-.29V.39a.35.35 0 01.29-.39h12.25a2.24 2.24 0 01.92.2z" id="M"/><path class="cls-1" d="M204.33 11a.39.39 0 01.28.11.37.37 0 01.1.28v2.72a.36.36 0 01-.1.28.39.39 0 01-.28.11h-9.59c-.28 0-.41-.14-.41-.39V.4c0-.27.13-.4.41-.4h2.94a.36.36 0 01.41.4v10.18a.36.36 0 00.12.27.4.4 0 00.29.1z" id="L"/><path class="cls-1" d="M219.09 0a.4.4 0 01.29.12.36.36 0 01.12.28v13.71a.39.39 0 01-.12.28.44.44 0 01-.29.11h-3a.46.46 0 01-.29-.11.39.39 0 01-.12-.28V9.32a.36.36 0 00-.38-.32h-4.18a.38.38 0 00-.29.1.37.37 0 00-.13.27v4.79c0 .26-.13.39-.41.39h-3a.36.36 0 01-.41-.39V.4a.36.36 0 01.41-.4h3a.36.36 0 01.41.4V5c0 .26.14.39.41.39h4.19a.33.33 0 00.28-.11.39.39 0 00.11-.27V.4a.36.36 0 01.12-.28.39.39 0 01.29-.12z" id="H"/></g></g></g></g></g></svg>