<svg width="1025" height="1025" viewBox="0 0 1025 1025" fill="none" xmlns="http://www.w3.org/2000/svg">
<mask id="path-1-outside-1_25_6" maskUnits="userSpaceOnUse" x="2" y="2" width="1021" height="1021" fill="black">
<rect fill="white" x="2" y="2" width="1021" height="1021"/>
<path d="M982.5 512.5C982.5 773.203 771.367 982.5 512.5 982.5C251.797 982.5 42.5 773.203 42.5 512.5C42.5 253.633 251.797 42.5 512.5 42.5C771.367 42.5 982.5 253.633 982.5 512.5ZM365.625 350.938V674.062C365.625 690.586 372.969 705.273 387.656 712.617C400.508 721.797 418.867 719.961 431.719 712.617L696.094 551.055C708.945 543.711 718.125 529.023 718.125 512.5C718.125 497.812 708.945 483.125 696.094 475.781L431.719 314.219C418.867 305.039 400.508 305.039 387.656 314.219C372.969 321.562 365.625 336.25 365.625 350.938Z"/>
</mask>
<path d="M982.5 512.5C982.5 773.203 771.367 982.5 512.5 982.5C251.797 982.5 42.5 773.203 42.5 512.5C42.5 253.633 251.797 42.5 512.5 42.5C771.367 42.5 982.5 253.633 982.5 512.5ZM365.625 350.938V674.062C365.625 690.586 372.969 705.273 387.656 712.617C400.508 721.797 418.867 719.961 431.719 712.617L696.094 551.055C708.945 543.711 718.125 529.023 718.125 512.5C718.125 497.812 708.945 483.125 696.094 475.781L431.719 314.219C418.867 305.039 400.508 305.039 387.656 314.219C372.969 321.562 365.625 336.25 365.625 350.938Z" fill="white"/>
<path d="M387.656 712.617L410.906 680.068L408.352 678.244L405.545 676.84L387.656 712.617ZM431.719 712.617L451.564 747.347L452.075 747.055L452.577 746.748L431.719 712.617ZM696.094 551.055L676.248 516.325L675.738 516.617L675.236 516.923L696.094 551.055ZM696.094 475.781L675.236 509.913L675.738 510.219L676.248 510.511L696.094 475.781ZM431.719 314.219L408.469 346.768L409.637 347.602L410.861 348.35L431.719 314.219ZM387.656 314.219L405.545 349.996L408.352 348.592L410.906 346.768L387.656 314.219ZM942.5 512.5C942.5 751.01 749.378 942.5 512.5 942.5V1022.5C793.357 1022.5 1022.5 795.396 1022.5 512.5H942.5ZM512.5 942.5C273.888 942.5 82.5 751.112 82.5 512.5H2.5C2.5 795.295 229.705 1022.5 512.5 1022.5V942.5ZM82.5 512.5C82.5 275.622 273.99 82.5 512.5 82.5V2.5C229.604 2.5 2.5 231.643 2.5 512.5H82.5ZM512.5 82.5C749.276 82.5 942.5 275.724 942.5 512.5H1022.5C1022.5 231.541 793.459 2.5 512.5 2.5V82.5ZM325.625 350.938V674.062H405.625V350.938H325.625ZM325.625 674.062C325.625 702.517 338.87 732.945 369.768 748.394L405.545 676.84C405.49 676.813 405.638 676.884 405.849 677.089C405.942 677.179 406.019 677.267 406.076 677.343C406.133 677.417 406.157 677.461 406.156 677.459C406.156 677.459 406.026 677.225 405.892 676.668C405.757 676.105 405.625 675.241 405.625 674.062H325.625ZM364.407 745.167C393.825 766.18 429.82 759.772 451.564 747.347L411.873 677.887C411.555 678.069 410.996 678.327 410.27 678.534C409.548 678.74 408.927 678.819 408.512 678.831C408.096 678.843 408.129 678.783 408.554 678.898C409.021 679.023 409.896 679.347 410.906 680.068L364.407 745.167ZM452.577 746.748L716.952 585.186L675.236 516.923L410.861 678.486L452.577 746.748ZM715.939 585.784C741.018 571.454 758.125 543.647 758.125 512.5H678.125C678.125 513.31 677.902 514.17 677.421 514.991C676.899 515.88 676.341 516.272 676.248 516.325L715.939 585.784ZM758.125 512.5C758.125 482.256 740.174 454.9 715.939 441.052L676.248 510.511C676.274 510.526 676.498 510.662 676.827 510.988C677.155 511.313 677.476 511.715 677.737 512.146C677.999 512.577 678.119 512.9 678.16 513.036C678.199 513.168 678.125 512.989 678.125 512.5H758.125ZM716.952 441.65L452.577 280.087L410.861 348.35L675.236 509.913L716.952 441.65ZM454.968 281.669C428.209 262.556 391.166 262.556 364.407 281.669L410.906 346.768C410.45 347.094 410.094 347.233 409.919 347.286C409.829 347.314 409.77 347.325 409.74 347.329C409.711 347.334 409.695 347.334 409.688 347.334C409.68 347.334 409.664 347.334 409.635 347.329C409.605 347.325 409.546 347.314 409.456 347.286C409.281 347.233 408.925 347.094 408.469 346.768L454.968 281.669ZM369.768 278.442C339.652 293.499 325.625 323.317 325.625 350.938H405.625C405.625 350.586 405.67 350.275 405.733 350.032C405.795 349.793 405.858 349.678 405.863 349.67C405.864 349.667 405.852 349.689 405.822 349.728C405.791 349.768 405.748 349.817 405.694 349.868C405.566 349.99 405.484 350.026 405.545 349.996L369.768 278.442Z" fill="#424242" mask="url(#path-1-outside-1_25_6)"/>
</svg>
