<svg xmlns="http://www.w3.org/2000/svg" width="109" height="235" fill="none" viewBox="0 0 109 235"><path fill="#C0A5F7" d="M6.8641 213.861C4.30178 212.831 1.38999 214.074 0.360447 216.636C-0.669099 219.198 0.573462 222.11 3.13578 223.14L6.8641 213.861ZM46.9052 0.522587C44.1533 0.293888 41.737 2.33938 41.5083 5.09131L37.7814 49.9367C37.5527 52.6887 39.5982 55.1049 42.3501 55.3336C45.1021 55.5623 47.5184 53.5169 47.7471 50.7649L51.0598 10.9023L90.9224 14.2151C93.6744 14.4438 96.0906 12.3983 96.3193 9.64638C96.548 6.89444 94.5025 4.47816 91.7506 4.24946L46.9052 0.522587ZM3.13578 223.14C43.1567 239.22 70.9945 238.363 88.3775 224.147C105.524 210.125 110.291 184.796 108.664 157.503C107.017 129.884 98.7454 98.5996 87.828 70.6089C76.9282 42.6636 63.1937 17.4972 50.3073 2.27483L42.6749 8.73599C54.5689 22.7861 67.8188 46.828 78.5116 74.2427C89.1866 101.612 97.1158 131.839 98.6816 158.098C100.267 184.684 95.2592 205.601 82.0468 216.406C69.0708 227.018 45.9658 229.572 6.8641 213.861L3.13578 223.14Z"/></svg>