<svg xmlns="http://www.w3.org/2000/svg" data-name="Layer 1" width="64" height="64" style=""><rect id="backgroundrect" width="100%" height="100%" x="0" y="0" fill="none" stroke="none"/>
  
<g class="currentLayer" style=""><title>Layer 1</title><rect fill="#f8f8f8" stroke="#222222" stroke-width="2" stroke-linejoin="round" stroke-dashoffset="" fill-rule="nonzero" opacity="1" id="svg_5" x="-31.84023666381836" y="-12.153846740722656" width="127.68047332763672" height="88.30769348144531" style="color: rgb(0, 0, 0);" class="" fill-opacity="1"/><g id="svg_1" class="">
    <path d="M59.148669288392014,26.96198131896541 c-0.12058434367179871,-0.3457588434219362 -0.24116868734359745,-0.6828737157583239 -0.3875925332307818,-1.0199885880947113 a9.673620576047897,9.70821680560112 0 0 0 -1.1369380974769592,-1.9103176099061965 c-0.2325555199384689,-0.30253898799419426 -0.4651110398769378,-0.5877900338172917 -0.749345564246178,-0.8989729928970337 l-0.3875925332307818,-0.38897869884967845 a9.832533514672518,9.867698072129487 0 0 0 -0.9043825775384906,-0.7866013687849045 L40.837075385088866,10.38284477688358 a13.198387073248623,13.245589092940092 0 0 0 -2.9801559221744536,-1.746082159280777 c-0.4392715376615524,-0.18152339279651644 -0.8957694101333623,-0.3457588434219362 -1.3781067848205568,-0.492706351876259 a15.551676671677829,15.607294872933627 0 0 0 -8.957694101333619,0 c-0.4737242072820666,0.13830353736877438 -0.9302220797538758,0.31118295907974275 -1.3867199522256852,0.492706351876259 a13.388651941227913,13.436534414219857 0 0 0 -2.9801559221744536,1.746082159280777 L8.417113272185272,21.957122060432887 a10.964562106728554,11.003775191903115 0 0 0 -0.878543075323105,0.7693134266138081 c-0.09474484145641339,0.08643971085548405 -0.18087651550769812,0.18152339279651644 -0.2756213569641114,0.27660707473754886 l-0.15503701329231273,0.1555914795398713 c-0.11197117626667029,0.12965956628322597 -0.2325555199384689,0.25067516148090374 -0.3273003613948827,0.37169075667858126 a10.146311203241348,10.182597938776016 0 0 0 -1.1369380974769592,1.5991346508264543 c-0.00861316740512848,0.02593191325664522 -0.01722633481025697,0.043219855427742045 -0.025839502215385442,0.06915176868438722 c-0.14642384588718424,0.2679631036520006 -0.28423452436923985,0.5359262073040012 -0.4134320354461669,0.8298212242126466 c-0.060292171835899376,0.14694750845432294 -0.12058434367179871,0.28525104582309724 -0.15503701329231273,0.38897869884967845 a3.5177036999285223,3.5302842310488227 0 0 0 -0.19810285031795508,0.5445701783895496 c-0.06890533924102789,0.2420311903953553 -0.1378106784820557,0.4840623807907106 -0.19810285031795508,0.7174496001005177 c-0.00861316740512848,0.02593191325664522 -0.00861316740512848,0.043219855427742045 -0.01722633481025697,0.06915176868438722 q-0.07751850664615637,0.363046785593033 -0.1291975110769272,0.7260935711860658 a10.122022071158886,10.15822194031477 0 0 0 -0.06890533924102789,1.184224038720131 v4.961639403104782 a9.739855833393335,9.774688943248988 0 0 0 3.884538499712944,7.390595278143883 l1.6537281417846679,1.5386268532276155 a3.2988431161642073,3.3106409257650378 0 0 0 2.136065516471863,0.8816850507259372 a3.231229752033949,3.2427857527434827 0 0 0 1.0163537538051606,1.3484594893455508 l9.974047855138778,7.8400817745924005 a14.368916523605586,14.42030476346612 0 0 0 8.845722925066948,2.8957303136587154 a14.368916523605586,14.42030476346612 0 0 0 8.845722925066948,-2.8957303136587154 l2.1532918512821198,-1.6942183327674867 a3.289368632018566,3.3011325575709343 0 0 0 1.2661356085538864,-2.610479267835617 v-3.941650815010071 a2.073103262740374,2.080517400580645 0 0 0 -0.08613167405128491,-0.6742297446727757 a1.4874940108656884,1.4928138064742091 0 0 0 -0.07751850664615637,-0.38033472776412985 a2.8522503862082957,2.862451024979353 0 0 0 -0.12058434367179871,-0.31118295907974275 a3.4326056059658527,3.444881796723604 0 0 0 -0.990514251589775,-1.253375807404518 l-13.677709839344026,-10.735812088251114 l2.7389872348308564,-2.1437048292160035 l17.54502200424671,13.769845939278602 a3.3720550391077997,3.3841146799921993 0 0 0 4.056801847815514,0 l1.98102850317955,-1.5559147953987122 a9.824523268985748,9.859659179019928 0 0 0 3.9792833411693573,-7.6931342661380775 v-4.736896154880524 A8.722985289543868,8.754181716889143 0 0 0 59.148669288392014,26.96198131896541 zm-18.28575440108776,18.02267971336842 l-1.9379626661539078,1.5213389110565188 a11.304523824208976,11.34495273064971 0 0 1 -6.976665598154067,2.2474324822425844 a11.286608436006308,11.326973270791768 0 0 1 -6.976665598154067,-2.2474324822425844 l-9.750105502605438,-7.658558381795883 l8.750978083610535,-6.871957013010979 a0.2583950221538544,0.25931913256645206 0 0 1 0.31868719398975404,0 zm12.842232601046563,-10.0010745459795 l-2.136065516471863,1.6769303905963902 l-19.250429150462153,-15.109661457538605 a0.5414237030863763,0.5433600224375726 0 0 0 -0.31868719398975404,-0.1037276530265809 a0.5227331298172471,0.5246026051819325 0 0 0 -0.31868719398975404,0.1037276530265809 L12.422236115570016,36.660516876950716 l-2.136065516471863,-1.6855743616819383 a6.7743422958076,6.798569698494672 0 0 1 -2.8251189088821413,-5.246890448927879 a6.527661181324721,6.551006366604567 0 0 1 2.161905018687248,-4.797403952479362 a0.00861316740512848,0.008643971085548402 0 0 1 0.00861316740512848,-0.008643971085548402 c0.09474484145641339,-0.0950836819410325 0.2067160177230835,-0.19881133496761333 0.301460859179497,-0.29389501690864583 c0.11197117626667029,-0.0950836819410325 0.22394235253334063,-0.19016736388206495 0.3531398636102678,-0.28525104582309724 l14.7285162627697,-11.55698934137821 a10.176629552507402,10.213024716997147 0 0 1 3.2557772791385653,-1.6942183327674867 a8.08035686944723,8.109255034196376 0 0 1 0.8957694101333623,-0.2420311903953553 a12.402358141666651,12.44671328521371 0 0 1 8.26864070892334,0.9508368194103244 a9.230903771424293,9.263916691803932 0 0 1 1.5417569655179975,0.9854127037525173 l14.737129430174827,11.55698934137821 c0.12058434367179871,0.0950836819410325 0.2325555199384689,0.19016736388206495 0.3273003613948827,0.27660707473754886 q0.18087651550769812,0.1555914795398713 0.3359135288000109,0.31118295907974275 a6.490021639764309,6.5132322129607205 0 0 1 2.1532918512821198,4.8319798368215565 A6.790362787181139,6.8146474847137934 0 0 1 53.70514748835082,34.983586486354326 z" style="fill: #111" id="svg_2"/>
    <path d="M40.86291488730425,44.984661032333825 l-1.9379626661539078,1.5213389110565188 a11.304523824208976,11.34495273064971 0 0 1 -6.976665598154067,2.2474324822425844 a11.286608436006308,11.326973270791768 0 0 1 -6.976665598154067,-2.2474324822425844 l-9.750105502605438,-7.658558381795883 l8.750978083610535,-6.871957013010979 a0.2583950221538544,0.25931913256645206 0 0 1 0.31868719398975404,0 z" style="fill: #fff" id="svg_3"/>
    <path d="M56.53026639723295,29.762627950683097 a6.790362787181139,6.8146474847137934 0 0 1 -2.8251189088821413,5.220958535671234 l-2.136065516471863,1.6769303905963902 l-19.250429150462153,-15.109661457538605 a0.5414237030863763,0.5433600224375726 0 0 0 -0.31868719398975404,-0.1037276530265809 a0.5227331298172471,0.5246026051819325 0 0 0 -0.31868719398975404,0.1037276530265809 L12.422236115570016,36.660516876950716 l-2.136065516471863,-1.6855743616819383 a6.7743422958076,6.798569698494672 0 0 1 -2.8251189088821413,-5.246890448927879 a6.527661181324721,6.551006366604567 0 0 1 2.161905018687248,-4.797403952479362 a0.00861316740512848,0.008643971085548402 0 0 1 0.00861316740512848,-0.008643971085548402 c0.09474484145641339,-0.0950836819410325 0.2067160177230835,-0.19881133496761333 0.301460859179497,-0.29389501690864583 c0.11197117626667029,-0.0950836819410325 0.22394235253334063,-0.19016736388206495 0.3531398636102678,-0.28525104582309724 l14.7285162627697,-11.55698934137821 a10.176629552507402,10.213024716997147 0 0 1 3.2557772791385653,-1.6942183327674867 a8.08035686944723,8.109255034196376 0 0 1 0.8957694101333623,-0.2420311903953553 a12.402358141666651,12.44671328521371 0 0 1 8.26864070892334,0.9508368194103244 a9.230903771424293,9.263916691803932 0 0 1 1.5417569655179975,0.9854127037525173 l14.737129430174827,11.55698934137821 c0.12058434367179871,0.0950836819410325 0.2325555199384689,0.19016736388206495 0.3273003613948827,0.27660707473754886 q0.18087651550769812,0.1555914795398713 0.3359135288000109,0.31118295907974275 A6.490021639764309,6.5132322129607205 0 0 1 56.53026639723295,29.762627950683097 z" style="fill: #fff" id="svg_4"/>
  </g></g></svg>